<?xml version="1.0" encoding="UTF-8"?><svg xmlns="http://www.w3.org/2000/svg" xmlns:xlink="http://www.w3.org/1999/xlink" fill-opacity="1" color-rendering="auto" color-interpolation="auto" text-rendering="auto" stroke="black" stroke-linecap="square" width="340" stroke-miterlimit="10" shape-rendering="auto" stroke-opacity="1" fill="black" stroke-dasharray="none" font-weight="normal" stroke-width="1" height="275" font-family="'Dialog'" font-style="normal" stroke-linejoin="miter" font-size="12px" stroke-dashoffset="0" image-rendering="auto">
  <!--Generated by ySVG 2.5-->
  <defs id="genericDefs"/>
  <g>
    <defs id="defs1">
      <linearGradient x1="357.94" gradientUnits="userSpaceOnUse" x2="377.94" y1="62.88" y2="62.88" id="linearGradient1" spreadMethod="reflect">
        <stop stop-opacity="1" stop-color="rgb(232,238,247)" offset="0%"/>
        <stop stop-opacity="1" stop-color="rgb(183,201,227)" offset="100%"/>
      </linearGradient>
      <linearGradient x1="297.94" gradientUnits="userSpaceOnUse" x2="317.94" y1="62.88" y2="62.88" id="linearGradient2" spreadMethod="reflect">
        <stop stop-opacity="1" stop-color="rgb(232,238,247)" offset="0%"/>
        <stop stop-opacity="1" stop-color="rgb(183,201,227)" offset="100%"/>
      </linearGradient>
      <linearGradient x1="237.94" gradientUnits="userSpaceOnUse" x2="257.94" y1="62.88" y2="62.88" id="linearGradient3" spreadMethod="reflect">
        <stop stop-opacity="1" stop-color="rgb(232,238,247)" offset="0%"/>
        <stop stop-opacity="1" stop-color="rgb(183,201,227)" offset="100%"/>
      </linearGradient>
      <linearGradient x1="417.94" gradientUnits="userSpaceOnUse" x2="437.94" y1="107.68" y2="107.68" id="linearGradient4" spreadMethod="reflect">
        <stop stop-opacity="1" stop-color="rgb(232,238,247)" offset="0%"/>
        <stop stop-opacity="1" stop-color="rgb(183,201,227)" offset="100%"/>
      </linearGradient>
      <linearGradient x1="417.94" gradientUnits="userSpaceOnUse" x2="437.94" y1="62.88" y2="62.88" id="linearGradient5" spreadMethod="reflect">
        <stop stop-opacity="1" stop-color="rgb(232,238,247)" offset="0%"/>
        <stop stop-opacity="1" stop-color="rgb(183,201,227)" offset="100%"/>
      </linearGradient>
      <linearGradient x1="477.94" gradientUnits="userSpaceOnUse" x2="497.94" y1="107.68" y2="107.68" id="linearGradient6" spreadMethod="reflect">
        <stop stop-opacity="1" stop-color="rgb(232,238,247)" offset="0%"/>
        <stop stop-opacity="1" stop-color="rgb(183,201,227)" offset="100%"/>
      </linearGradient>
      <clipPath clipPathUnits="userSpaceOnUse" id="clipPath1">
        <path d="M0 0 L340 0 L340 275 L0 275 L0 0 Z"/>
      </clipPath>
      <clipPath clipPathUnits="userSpaceOnUse" id="clipPath2">
        <path d="M212 -62 L552 -62 L552 213 L212 213 L212 -62 Z"/>
      </clipPath>
    </defs>
    <g fill="white" text-rendering="geometricPrecision" shape-rendering="geometricPrecision" transform="translate(-212,62)" stroke="white">
      <rect x="212" width="340" height="275" y="-62" clip-path="url(#clipPath2)" stroke="none"/>
    </g>
    <g fill="url(#linearGradient1)" text-rendering="geometricPrecision" shape-rendering="geometricPrecision" transform="matrix(1,0,0,1,-212,62)" stroke="url(#linearGradient1)">
      <circle r="15" clip-path="url(#clipPath2)" cx="362.94" cy="77.88" stroke="none"/>
    </g>
    <g text-rendering="geometricPrecision" stroke-miterlimit="1.45" shape-rendering="geometricPrecision" font-family="sans-serif" transform="matrix(1,0,0,1,-212,62)" stroke-linecap="butt">
      <text x="354.9947" xml:space="preserve" y="82.4152" clip-path="url(#clipPath2)" stroke="none">C3</text>
      <circle fill="none" r="15" clip-path="url(#clipPath2)" cx="362.94" cy="77.88"/>
    </g>
    <g fill="url(#linearGradient2)" text-rendering="geometricPrecision" shape-rendering="geometricPrecision" transform="matrix(1,0,0,1,-212,62)" stroke="url(#linearGradient2)">
      <circle r="15" clip-path="url(#clipPath2)" cx="302.94" cy="77.88" stroke="none"/>
    </g>
    <g text-rendering="geometricPrecision" stroke-miterlimit="1.45" shape-rendering="geometricPrecision" font-family="sans-serif" transform="matrix(1,0,0,1,-212,62)" stroke-linecap="butt">
      <text x="294.9947" xml:space="preserve" y="82.4152" clip-path="url(#clipPath2)" stroke="none">C2</text>
      <circle fill="none" r="15" clip-path="url(#clipPath2)" cx="302.94" cy="77.88"/>
    </g>
    <g fill="url(#linearGradient3)" text-rendering="geometricPrecision" shape-rendering="geometricPrecision" transform="matrix(1,0,0,1,-212,62)" stroke="url(#linearGradient3)">
      <circle r="15" clip-path="url(#clipPath2)" cx="242.94" cy="77.88" stroke="none"/>
    </g>
    <g text-rendering="geometricPrecision" stroke-miterlimit="1.45" shape-rendering="geometricPrecision" font-family="sans-serif" transform="matrix(1,0,0,1,-212,62)" stroke-linecap="butt">
      <text x="234.9947" xml:space="preserve" y="82.4152" clip-path="url(#clipPath2)" stroke="none">C1</text>
      <circle fill="none" r="15" clip-path="url(#clipPath2)" cx="242.94" cy="77.88"/>
    </g>
    <g fill="url(#linearGradient4)" text-rendering="geometricPrecision" shape-rendering="geometricPrecision" transform="matrix(1,0,0,1,-212,62)" stroke="url(#linearGradient4)">
      <circle r="15" clip-path="url(#clipPath2)" cx="422.94" cy="122.68" stroke="none"/>
    </g>
    <g text-rendering="geometricPrecision" stroke-miterlimit="1.45" shape-rendering="geometricPrecision" font-family="sans-serif" transform="matrix(1,0,0,1,-212,62)" stroke-linecap="butt">
      <text x="414.9947" xml:space="preserve" y="127.2152" clip-path="url(#clipPath2)" stroke="none">C4</text>
      <circle fill="none" r="15" clip-path="url(#clipPath2)" cx="422.94" cy="122.68"/>
    </g>
    <g fill="url(#linearGradient5)" text-rendering="geometricPrecision" shape-rendering="geometricPrecision" transform="matrix(1,0,0,1,-212,62)" stroke="url(#linearGradient5)">
      <circle r="15" clip-path="url(#clipPath2)" cx="422.94" cy="77.88" stroke="none"/>
    </g>
    <g text-rendering="geometricPrecision" stroke-miterlimit="1.45" shape-rendering="geometricPrecision" font-family="sans-serif" transform="matrix(1,0,0,1,-212,62)" stroke-linecap="butt">
      <text x="414.9947" xml:space="preserve" y="82.4152" clip-path="url(#clipPath2)" stroke="none">C5</text>
      <circle fill="none" r="15" clip-path="url(#clipPath2)" cx="422.94" cy="77.88"/>
    </g>
    <g text-rendering="geometricPrecision" stroke-miterlimit="1.45" shape-rendering="geometricPrecision" font-family="'Comic Sans MS'" transform="matrix(1,0,0,1,-212,62)" stroke-linecap="butt">
      <text x="403.2906" xml:space="preserve" y="30.7433" clip-path="url(#clipPath2)" stroke="none">master</text>
    </g>
    <g text-rendering="geometricPrecision" stroke-miterlimit="1.45" shape-rendering="geometricPrecision" font-family="'Comic Sans MS'" transform="matrix(1,0,0,1,-212,62)" stroke-linecap="butt">
      <text x="468.0923" xml:space="preserve" y="187.5433" clip-path="url(#clipPath2)" stroke="none">iss53</text>
    </g>
    <g fill="url(#linearGradient6)" text-rendering="geometricPrecision" shape-rendering="geometricPrecision" transform="matrix(1,0,0,1,-212,62)" stroke="url(#linearGradient6)">
      <circle r="15" clip-path="url(#clipPath2)" cx="482.94" cy="122.68" stroke="none"/>
    </g>
    <g text-rendering="geometricPrecision" stroke-miterlimit="1.45" shape-rendering="geometricPrecision" font-family="sans-serif" transform="matrix(1,0,0,1,-212,62)" stroke-linecap="butt">
      <text x="474.9947" xml:space="preserve" y="127.2152" clip-path="url(#clipPath2)" stroke="none">C6</text>
      <circle fill="none" r="15" clip-path="url(#clipPath2)" cx="482.94" cy="122.68"/>
    </g>
    <g stroke-linecap="butt" transform="matrix(1,0,0,1,-212,62)" fill="rgb(51,102,255)" text-rendering="geometricPrecision" shape-rendering="geometricPrecision" stroke="rgb(51,102,255)" stroke-width="3" stroke-miterlimit="1.45">
      <circle fill="none" r="16.28" clip-path="url(#clipPath2)" cx="362.94" cy="77.88"/>
    </g>
    <g stroke-linecap="butt" transform="matrix(1,0,0,1,-212,62)" fill="rgb(51,102,255)" text-rendering="geometricPrecision" shape-rendering="geometricPrecision" stroke="rgb(51,102,255)" stroke-miterlimit="1.45">
      <path fill="none" d="M276.86 -15.8912 C260.58 -31.84 276.86 -46.08 303.5592 -35.8272 C303.5592 -46.08 347.8408 -46.08 347.8408 -35.8272 C374.54 -46.08 390.82 -31.84 374.54 -19.3088 C390.82 -3.36 374.54 10.88 354.3528 0.6272 C347.8408 10.88 303.5592 10.88 310.0712 0.6272 C276.86 10.88 260.58 -3.36 276.86 -15.8912 Z" clip-path="url(#clipPath2)"/>
      <text x="280.5096" xml:space="preserve" y="-12.7367" clip-path="url(#clipPath2)" font-family="'Comic Sans MS'" stroke="none">ancêtre commun</text>
    </g>
    <g stroke-linecap="butt" transform="matrix(1,0,0,1,-212,62)" fill="olive" text-rendering="geometricPrecision" shape-rendering="geometricPrecision" stroke="olive" stroke-miterlimit="1.45">
      <path fill="none" d="M408.9775 -15.8912 C390.82 -31.84 408.9775 -46.08 438.7558 -35.8272 C438.7558 -46.08 488.1442 -46.08 488.1442 -35.8272 C517.9225 -46.08 536.08 -31.84 517.9225 -19.3088 C536.08 -3.36 517.9225 10.88 495.4072 0.6272 C488.1442 10.88 438.7558 10.88 446.0188 0.6272 C408.9775 10.88 390.82 -3.36 408.9775 -15.8912 Z" clip-path="url(#clipPath2)"/>
      <text x="413.742" xml:space="preserve" y="-12.7367" clip-path="url(#clipPath2)" font-family="'Comic Sans MS'" stroke="none">parties à intégrer</text>
    </g>
    <g stroke-linecap="butt" transform="matrix(1,0,0,1,-212,62)" fill="olive" text-rendering="geometricPrecision" shape-rendering="geometricPrecision" stroke="olive" stroke-width="3" stroke-miterlimit="1.45">
      <circle fill="none" r="16.28" clip-path="url(#clipPath2)" cx="422.94" cy="77.88"/>
      <circle fill="none" r="16.28" clip-path="url(#clipPath2)" cx="482.94" cy="122.68"/>
    </g>
    <g text-rendering="geometricPrecision" stroke-miterlimit="1.45" stroke-dasharray="6,2" shape-rendering="geometricPrecision" transform="matrix(1,0,0,1,-212,62)" stroke-linecap="butt">
      <path fill="none" d="M347.94 77.88 L325.94 77.88" clip-path="url(#clipPath2)"/>
      <path d="M317.94 77.88 L329.94 82.88 L326.94 77.88 L329.94 72.88 Z" clip-path="url(#clipPath2)" stroke="none"/>
      <path fill="none" d="M287.94 77.88 L265.94 77.88" clip-path="url(#clipPath2)"/>
      <path d="M257.94 77.88 L269.94 82.88 L266.94 77.88 L269.94 72.88 Z" clip-path="url(#clipPath2)" stroke="none"/>
      <path fill="none" d="M410.9208 113.7057 L381.3694 91.6407" clip-path="url(#clipPath2)"/>
      <path d="M374.9592 86.8543 L381.5831 98.0402 L382.1707 92.2389 L387.566 90.0274 Z" clip-path="url(#clipPath2)" stroke="none"/>
      <path fill="none" d="M407.94 77.88 L385.94 77.88" clip-path="url(#clipPath2)"/>
      <path d="M377.94 77.88 L389.94 82.88 L386.94 77.88 L389.94 72.88 Z" clip-path="url(#clipPath2)" stroke="none"/>
      <path fill="none" stroke-dasharray="none" d="M422.94 39.5148 L422.94 54.88" clip-path="url(#clipPath2)"/>
      <path stroke-dasharray="none" d="M422.94 62.88 L427.94 50.88 L422.94 53.88 L417.94 50.88 Z" clip-path="url(#clipPath2)" stroke="none"/>
      <path fill="none" stroke-dasharray="none" d="M482.94 169.0569 L482.94 145.68" clip-path="url(#clipPath2)"/>
      <path stroke-dasharray="none" d="M482.94 137.68 L477.94 149.68 L482.94 146.68 L487.94 149.68 Z" clip-path="url(#clipPath2)" stroke="none"/>
      <path fill="none" d="M467.94 122.68 L445.94 122.68" clip-path="url(#clipPath2)"/>
      <path d="M437.94 122.68 L449.94 127.68 L446.94 122.68 L449.94 117.68 Z" clip-path="url(#clipPath2)" stroke="none"/>
    </g>
    <g stroke-linecap="butt" transform="matrix(1,0,0,1,-212,62)" fill="rgb(51,102,255)" text-rendering="geometricPrecision" shape-rendering="geometricPrecision" stroke="rgb(51,102,255)" stroke-width="2" stroke-miterlimit="1.45">
      <path fill="none" d="M335.6191 7.8318 L353.754 54.328" clip-path="url(#clipPath2)"/>
      <path d="M357.0244 62.7128 L357.3594 48.0917 L353.3452 53.2799 L346.8784 52.1796 Z" clip-path="url(#clipPath2)" stroke="none"/>
      <path fill="none" d="M452.8972 7.2724 L432.8138 54.608" clip-path="url(#clipPath2)" stroke="olive"/>
      <path fill="olive" d="M429.2986 62.8931 L439.7496 52.6624 L433.2532 53.5723 L429.3932 48.2684 Z" clip-path="url(#clipPath2)" stroke="none"/>
      <path fill="none" d="M467.052 8.3258 L479.4611 97.6405" clip-path="url(#clipPath2)" stroke="olive"/>
      <path fill="olive" d="M480.6996 106.5549 L484.4133 92.4092 L479.3063 96.5262 L473.2703 93.9574 Z" clip-path="url(#clipPath2)" stroke="none"/>
    </g>
  </g>
</svg>
