<?xml version="1.0" encoding="UTF-8"?><svg xmlns="http://www.w3.org/2000/svg" xmlns:xlink="http://www.w3.org/1999/xlink" fill-opacity="1" color-rendering="auto" color-interpolation="auto" text-rendering="auto" stroke="black" stroke-linecap="square" width="902" stroke-miterlimit="10" shape-rendering="auto" stroke-opacity="1" fill="black" stroke-dasharray="none" font-weight="normal" stroke-width="1" height="589" font-family="'Dialog'" font-style="normal" stroke-linejoin="miter" font-size="12px" stroke-dashoffset="0" image-rendering="auto">
  <!--Generated by ySVG 2.5-->
  <defs id="genericDefs"/>
  <g>
    <defs id="defs1">
      <clipPath clipPathUnits="userSpaceOnUse" id="clipPath1">
        <path d="M0 0 L902 0 L902 589 L0 589 L0 0 Z"/>
      </clipPath>
      <clipPath clipPathUnits="userSpaceOnUse" id="clipPath2">
        <path d="M-65 11 L837 11 L837 600 L-65 600 L-65 11 Z"/>
      </clipPath>
    </defs>
    <g fill="white" text-rendering="geometricPrecision" shape-rendering="geometricPrecision" transform="translate(65,-11)" stroke="white">
      <rect x="-65" width="902" height="589" y="11" clip-path="url(#clipPath2)" stroke="none"/>
    </g>
    <g fill="rgb(255,204,0)" text-rendering="geometricPrecision" shape-rendering="geometricPrecision" transform="matrix(1,0,0,1,65,-11)" stroke="rgb(255,204,0)">
      <path d="M255.5137 66 L277.4631 51 L453.0584 51 L475.0078 66 L453.0584 81 L277.4631 81 Z" fill-rule="evenodd" clip-path="url(#clipPath2)" stroke="none"/>
    </g>
    <g text-rendering="geometricPrecision" stroke-miterlimit="1.45" shape-rendering="geometricPrecision" font-family="sans-serif" transform="matrix(1,0,0,1,65,-11)" stroke-linecap="butt">
      <text x="346.1621" xml:space="preserve" y="70.5352" clip-path="url(#clipPath2)" stroke="none">Treasy</text>
      <path fill="none" d="M255.5137 66 L277.4631 51 L453.0584 51 L475.0078 66 L453.0584 81 L277.4631 81 Z" clip-path="url(#clipPath2)" fill-rule="evenodd"/>
      <text x="5.3516" xml:space="preserve" y="352.5352" clip-path="url(#clipPath2)" stroke="none">Classe</text>
      <rect fill="none" x="-2.9785" width="53.9785" height="60" y="318" clip-path="url(#clipPath2)"/>
      <text x="325.8994" xml:space="preserve" y="204.5352" clip-path="url(#clipPath2)" stroke="none">Municipalités</text>
      <rect fill="none" x="321.0059" width="86.5098" height="60" y="170" clip-path="url(#clipPath2)"/>
      <text x="361.4668" xml:space="preserve" y="249.5352" clip-path="url(#clipPath2)" stroke="none">1</text>
      <path fill="none" d="M297.1641 245 L310.7834 230 L419.7381 230 L433.3574 245 L419.7381 260 L310.7834 260 Z" clip-path="url(#clipPath2)" fill-rule="evenodd"/>
      <text x="15.333" xml:space="preserve" y="397.5352" clip-path="url(#clipPath2)" stroke="none">nb</text>
      <path fill="none" d="M-31.667 393 L-20.767 378 L66.433 378 L77.333 393 L66.433 408 L-20.767 408 Z" clip-path="url(#clipPath2)" fill-rule="evenodd"/>
      <text x="326.8994" xml:space="preserve" y="340.5352" clip-path="url(#clipPath2)" stroke="none">Municipalités</text>
      <rect fill="none" x="318.7715" width="92.9785" height="60" y="306" clip-path="url(#clipPath2)"/>
      <rect fill="none" x="102" width="131" height="69" y="131" clip-path="url(#clipPath2)"/>
      <text x="140.0195" xml:space="preserve" y="170.0352" clip-path="url(#clipPath2)" stroke="none">Affichage</text>
      <rect fill="none" x="107" width="10" height="10" y="138.5" clip-path="url(#clipPath2)"/>
      <rect fill="none" x="-14.4893" width="77" height="60" y="318" clip-path="url(#clipPath2)"/>
      <text x="538.9609" xml:space="preserve" y="130.5352" clip-path="url(#clipPath2)" stroke="none">Menu</text>
      <path fill="none" d="M486.8223 126 L500.4416 111 L609.3963 111 L623.0156 126 L609.3963 141 L500.4416 141 Z" clip-path="url(#clipPath2)" fill-rule="evenodd"/>
      <text x="523.8496" xml:space="preserve" y="205.5352" clip-path="url(#clipPath2)" stroke="none">Catégories</text>
      <rect fill="none" x="511.6641" width="86.5098" height="60" y="171" clip-path="url(#clipPath2)"/>
      <rect fill="none" x="501.4189" width="109" height="60" y="170" clip-path="url(#clipPath2)"/>
      <text x="552.125" xml:space="preserve" y="250.5352" clip-path="url(#clipPath2)" stroke="none">1</text>
      <path fill="none" d="M487.8223 246 L501.4416 231 L610.3963 231 L624.0156 246 L610.3963 261 L501.4416 261 Z" clip-path="url(#clipPath2)" fill-rule="evenodd"/>
      <rect fill="none" x="310.7607" width="109" height="60" y="170" clip-path="url(#clipPath2)"/>
      <text x="714.7627" xml:space="preserve" y="205.5352" clip-path="url(#clipPath2)" stroke="none">Favoris</text>
      <rect fill="none" x="692.0771" width="86.5098" height="60" y="171" clip-path="url(#clipPath2)"/>
      <rect fill="none" x="676.832" width="114" height="60" y="171" clip-path="url(#clipPath2)"/>
      <text x="732.5381" xml:space="preserve" y="250.5352" clip-path="url(#clipPath2)" stroke="none">1</text>
      <path fill="none" d="M668.2354 246 L681.8547 231 L790.8094 231 L804.4288 246 L790.8094 261 L681.8547 261 Z" clip-path="url(#clipPath2)" fill-rule="evenodd"/>
      <text x="530.9248" xml:space="preserve" y="340.5352" clip-path="url(#clipPath2)" stroke="none">Produits</text>
      <rect fill="none" x="511.6641" width="86.5098" height="60" y="306" clip-path="url(#clipPath2)"/>
      <rect fill="none" x="501.4189" width="109" height="60" y="306" clip-path="url(#clipPath2)"/>
      <text x="552.125" xml:space="preserve" y="385.5352" clip-path="url(#clipPath2)" stroke="none">1</text>
      <path fill="none" d="M487.8223 381 L501.4416 366 L610.3963 366 L624.0156 381 L610.3963 396 L501.4416 396 Z" clip-path="url(#clipPath2)" fill-rule="evenodd"/>
      <path fill="none" d="M320.8598 366 L411.75 366 L401.6507 396 L310.7607 396 Z" clip-path="url(#clipPath2)" fill-rule="evenodd"/>
      <text x="341.7935" xml:space="preserve" y="385.5352" clip-path="url(#clipPath2)" stroke="none">valider</text>
      <text x="531.9248" xml:space="preserve" y="475.5352" clip-path="url(#clipPath2)" stroke="none">Produits</text>
      <rect fill="none" x="509.4297" width="92.9785" height="60" y="441" clip-path="url(#clipPath2)"/>
      <path fill="none" d="M511.5179 501 L602.4082 501 L592.3093 531 L501.4189 531 Z" clip-path="url(#clipPath2)" fill-rule="evenodd"/>
      <text x="532.4517" xml:space="preserve" y="520.5352" clip-path="url(#clipPath2)" stroke="none">valider</text>
      <text x="715.7627" xml:space="preserve" y="340.5352" clip-path="url(#clipPath2)" stroke="none">Favoris</text>
      <rect fill="none" x="689.8428" width="92.9785" height="60" y="306" clip-path="url(#clipPath2)"/>
      <path fill="none" d="M691.931 366 L782.8213 366 L772.7224 396 L681.832 396 Z" clip-path="url(#clipPath2)" fill-rule="evenodd"/>
      <text x="712.8647" xml:space="preserve" y="385.5352" clip-path="url(#clipPath2)" stroke="none">valider</text>
      <text x="4.1738" xml:space="preserve" y="460.0352" clip-path="url(#clipPath2)" stroke="none">Classe</text>
      <rect fill="none" x="-4.1562" width="53.9785" height="60" y="425.5" clip-path="url(#clipPath2)"/>
      <rect fill="none" x="-42.667" width="131" height="69" y="508" clip-path="url(#clipPath2)"/>
      <text x="-4.6475" xml:space="preserve" y="547.0352" clip-path="url(#clipPath2)" stroke="none">Affichage</text>
      <rect fill="none" x="-37.667" width="10" height="10" y="515.5" clip-path="url(#clipPath2)"/>
      <rect fill="none" x="-49.7422" width="282.7422" height="298" y="286.5" clip-path="url(#clipPath2)"/>
      <text x="133.0195" xml:space="preserve" y="343.3888" clip-path="url(#clipPath2)" stroke="none">Affichage</text>
      <text x="105.5654" xml:space="preserve" y="357.5216" clip-path="url(#clipPath2)" stroke="none">d'une liste d'objets</text>
      <text x="118.4268" xml:space="preserve" y="371.6544" clip-path="url(#clipPath2)" stroke="none">de type Classe</text>
      <text x="128.4082" xml:space="preserve" y="443.1016" clip-path="url(#clipPath2)" stroke="none">Affichage</text>
      <text x="121.3681" xml:space="preserve" y="457.2344" clip-path="url(#clipPath2)" stroke="none">d'un d'objet</text>
      <text x="113.8154" xml:space="preserve" y="471.3672" clip-path="url(#clipPath2)" stroke="none">de type Classe</text>
      <text x="129.8353" xml:space="preserve" y="540.3359" clip-path="url(#clipPath2)" stroke="none">Affichage</text>
      <text x="117.3607" xml:space="preserve" y="554.4688" clip-path="url(#clipPath2)" stroke="none">d'un message</text>
      <text x="114.7217" xml:space="preserve" y="395.5938" clip-path="url(#clipPath2)" stroke="none">Sélection de nb</text>
      <text x="141.3174" xml:space="preserve" y="409.7266" clip-path="url(#clipPath2)" stroke="none">objets</text>
      <text x="58.3969" xml:space="preserve" y="304.1016" clip-path="url(#clipPath2)" font-weight="bold" stroke="none">- Légende -</text>
      <path fill="none" d="M365.2607 259.9741 L365.2607 306" clip-path="url(#clipPath2)"/>
      <rect x="327.5244" y="273.9336" clip-path="url(#clipPath2)" fill="white" width="75.4727" height="18.1328" stroke="none"/>
      <text x="329.5244" xml:space="preserve" y="287.5352" clip-path="url(#clipPath2)" stroke="none">municipalité</text>
      <path fill="none" d="M255.517 66 L167.5 66 L167.5 131" clip-path="url(#clipPath2)"/>
      <text x="177.0947" xml:space="preserve" y="40.5352" clip-path="url(#clipPath2)" stroke="none">[Si scan OK]</text>
      <path fill="none" d="M554.9189 110.9707 L554.9189 66 L475.0458 66" clip-path="url(#clipPath2)"/>
      <text x="494.9624" xml:space="preserve" y="40.5352" clip-path="url(#clipPath2)" stroke="none">[Sinon]</text>
      <path fill="none" d="M555.1216 140.9951 L555.5135 170" clip-path="url(#clipPath2)"/>
      <rect x="523.3322" y="146.8672" clip-path="url(#clipPath2)" fill="white" width="63.9824" height="18.1328" stroke="none"/>
      <text x="525.3322" xml:space="preserve" y="160.4688" clip-path="url(#clipPath2)" stroke="none">catégories</text>
      <path fill="none" d="M499.0774 139.4825 L372.7117 169.9926" clip-path="url(#clipPath2)"/>
      <rect x="391.9419" y="146.4336" clip-path="url(#clipPath2)" fill="white" width="81.5898" height="18.1328" stroke="none"/>
      <text x="393.9419" xml:space="preserve" y="160.0352" clip-path="url(#clipPath2)" stroke="none">municipalités</text>
      <path fill="none" d="M590.6928 140.9963 L676.832 177.1057" clip-path="url(#clipPath2)"/>
      <rect x="615.7067" y="151.453" clip-path="url(#clipPath2)" fill="white" width="43.1172" height="18.1328" stroke="none"/>
      <text x="617.7067" xml:space="preserve" y="165.0546" clip-path="url(#clipPath2)" stroke="none">favoris</text>
      <path fill="none" d="M555.9189 260.9854 L555.9189 306" clip-path="url(#clipPath2)"/>
      <rect x="529.4648" y="274.4336" clip-path="url(#clipPath2)" fill="white" width="52.9082" height="18.1328" stroke="none"/>
      <text x="531.4648" xml:space="preserve" y="288.0352" clip-path="url(#clipPath2)" stroke="none">produits</text>
      <path fill="none" d="M361.2554 396.0117 L361.2554 437 L284.6667 437 L284.6667 100 L539.6667 100 L546.1161 110.9941" clip-path="url(#clipPath2)"/>
      <path fill="none" d="M555.9189 396.0142 L555.9189 440.9703" clip-path="url(#clipPath2)"/>
      <rect x="534.4541" y="409.4336" clip-path="url(#clipPath2)" fill="white" width="42.9297" height="18.1328" stroke="none"/>
      <text x="536.4541" xml:space="preserve" y="423.0352" clip-path="url(#clipPath2)" stroke="none">choisir</text>
      <path fill="none" d="M551.9136 530.9922 L551.9136 541.3333 L263.6667 541.3333 L263.6667 99.3333 L537.6667 99.3333 L545.2314 111.026" clip-path="url(#clipPath2)"/>
      <path fill="none" d="M736.332 260.9854 L736.332 306" clip-path="url(#clipPath2)"/>
      <rect x="714.7734" y="274.4336" clip-path="url(#clipPath2)" fill="white" width="43.1172" height="18.1328" stroke="none"/>
      <text x="716.7734" xml:space="preserve" y="288.0352" clip-path="url(#clipPath2)" stroke="none">favoris</text>
      <path fill="none" d="M732.3267 395.9911 L732.3267 409.375 L821.5417 409.375 L821.5417 100.625 L577.7917 100.625 L568.4326 111.0079" clip-path="url(#clipPath2)"/>
    </g>
  </g>
</svg>
