<?xml version="1.0" encoding="UTF-8"?><svg xmlns="http://www.w3.org/2000/svg" xmlns:xlink="http://www.w3.org/1999/xlink" fill-opacity="1" color-rendering="auto" color-interpolation="auto" text-rendering="auto" stroke="black" stroke-linecap="square" width="188" stroke-miterlimit="10" shape-rendering="auto" stroke-opacity="1" fill="black" stroke-dasharray="none" font-weight="normal" stroke-width="1" height="173" font-family="'Dialog'" font-style="normal" stroke-linejoin="miter" font-size="12px" stroke-dashoffset="0" image-rendering="auto">
  <!--Generated by ySVG 2.5-->
  <defs id="genericDefs"/>
  <g>
    <defs id="defs1">
      <linearGradient x1="440.5" gradientUnits="userSpaceOnUse" x2="460.5" y1="68" y2="68" id="linearGradient1" spreadMethod="reflect">
        <stop stop-opacity="1" stop-color="rgb(232,238,247)" offset="0%"/>
        <stop stop-opacity="1" stop-color="rgb(183,201,227)" offset="100%"/>
      </linearGradient>
      <linearGradient x1="380.5" gradientUnits="userSpaceOnUse" x2="400.5" y1="68" y2="68" id="linearGradient2" spreadMethod="reflect">
        <stop stop-opacity="1" stop-color="rgb(232,238,247)" offset="0%"/>
        <stop stop-opacity="1" stop-color="rgb(183,201,227)" offset="100%"/>
      </linearGradient>
      <linearGradient x1="320.5" gradientUnits="userSpaceOnUse" x2="340.5" y1="68" y2="68" id="linearGradient3" spreadMethod="reflect">
        <stop stop-opacity="1" stop-color="rgb(232,238,247)" offset="0%"/>
        <stop stop-opacity="1" stop-color="rgb(183,201,227)" offset="100%"/>
      </linearGradient>
      <clipPath clipPathUnits="userSpaceOnUse" id="clipPath1">
        <path d="M0 0 L188 0 L188 173 L0 173 L0 0 Z"/>
      </clipPath>
      <clipPath clipPathUnits="userSpaceOnUse" id="clipPath2">
        <path d="M295 0 L483 0 L483 173 L295 173 L295 0 Z"/>
      </clipPath>
    </defs>
    <g fill="white" text-rendering="geometricPrecision" shape-rendering="geometricPrecision" transform="translate(-295,0)" stroke="white">
      <rect x="295" width="188" height="173" y="0" clip-path="url(#clipPath2)" stroke="none"/>
    </g>
    <g fill="url(#linearGradient1)" text-rendering="geometricPrecision" shape-rendering="geometricPrecision" transform="matrix(1,0,0,1,-295,0)" stroke="url(#linearGradient1)">
      <circle r="15" clip-path="url(#clipPath2)" cx="445.5" cy="83" stroke="none"/>
    </g>
    <g text-rendering="geometricPrecision" stroke-miterlimit="1.45" shape-rendering="geometricPrecision" font-family="sans-serif" transform="matrix(1,0,0,1,-295,0)" stroke-linecap="butt">
      <text x="437.5547" xml:space="preserve" y="87.5352" clip-path="url(#clipPath2)" stroke="none">C3</text>
      <circle fill="none" r="15" clip-path="url(#clipPath2)" cx="445.5" cy="83"/>
    </g>
    <g text-rendering="geometricPrecision" stroke-miterlimit="1.45" shape-rendering="geometricPrecision" font-family="'Comic Sans MS'" transform="matrix(1,0,0,1,-295,0)" stroke-linecap="butt">
      <text x="425.8506" xml:space="preserve" y="35.8633" clip-path="url(#clipPath2)" stroke="none">master</text>
    </g>
    <g fill="url(#linearGradient2)" text-rendering="geometricPrecision" shape-rendering="geometricPrecision" transform="matrix(1,0,0,1,-295,0)" stroke="url(#linearGradient2)">
      <circle r="15" clip-path="url(#clipPath2)" cx="385.5" cy="83" stroke="none"/>
    </g>
    <g text-rendering="geometricPrecision" stroke-miterlimit="1.45" shape-rendering="geometricPrecision" font-family="sans-serif" transform="matrix(1,0,0,1,-295,0)" stroke-linecap="butt">
      <text x="377.5547" xml:space="preserve" y="87.5352" clip-path="url(#clipPath2)" stroke="none">C2</text>
      <circle fill="none" r="15" clip-path="url(#clipPath2)" cx="385.5" cy="83"/>
    </g>
    <g fill="url(#linearGradient3)" text-rendering="geometricPrecision" shape-rendering="geometricPrecision" transform="matrix(1,0,0,1,-295,0)" stroke="url(#linearGradient3)">
      <circle r="15" clip-path="url(#clipPath2)" cx="325.5" cy="83" stroke="none"/>
    </g>
    <g text-rendering="geometricPrecision" stroke-miterlimit="1.45" shape-rendering="geometricPrecision" font-family="sans-serif" transform="matrix(1,0,0,1,-295,0)" stroke-linecap="butt">
      <text x="317.5547" xml:space="preserve" y="87.5352" clip-path="url(#clipPath2)" stroke="none">C1</text>
      <circle fill="none" r="15" clip-path="url(#clipPath2)" cx="325.5" cy="83"/>
    </g>
    <g text-rendering="geometricPrecision" stroke-miterlimit="1.45" shape-rendering="geometricPrecision" font-family="'Comic Sans MS'" transform="matrix(1,0,0,1,-295,0)" stroke-linecap="butt">
      <text x="430.6523" xml:space="preserve" y="147.8633" clip-path="url(#clipPath2)" stroke="none">iss53</text>
    </g>
    <g text-rendering="geometricPrecision" stroke-miterlimit="1.45" shape-rendering="geometricPrecision" transform="matrix(1,0,0,1,-295,0)" stroke-linecap="butt">
      <path fill="none" d="M445.5 44.6348 L445.5 60" clip-path="url(#clipPath2)"/>
      <path d="M445.5 68 L450.5 56 L445.5 59 L440.5 56 Z" clip-path="url(#clipPath2)" stroke="none"/>
      <path fill="none" stroke-dasharray="6,2" d="M430.5 83 L408.5 83" clip-path="url(#clipPath2)"/>
      <path stroke-dasharray="6,2" d="M400.5 83 L412.5 88 L409.5 83 L412.5 78 Z" clip-path="url(#clipPath2)" stroke="none"/>
      <path fill="none" stroke-dasharray="6,2" d="M370.5 83 L348.5 83" clip-path="url(#clipPath2)"/>
      <path stroke-dasharray="6,2" d="M340.5 83 L352.5 88 L349.5 83 L352.5 78 Z" clip-path="url(#clipPath2)" stroke="none"/>
      <path fill="none" d="M445.5 129.377 L445.5 106" clip-path="url(#clipPath2)"/>
      <path d="M445.5 98 L440.5 110 L445.5 107 L450.5 110 Z" clip-path="url(#clipPath2)" stroke="none"/>
    </g>
  </g>
</svg>
