<?xml version="1.0" encoding="UTF-8"?><svg xmlns="http://www.w3.org/2000/svg" xmlns:xlink="http://www.w3.org/1999/xlink" fill-opacity="1" color-rendering="auto" color-interpolation="auto" text-rendering="auto" stroke="black" stroke-linecap="square" width="248" stroke-miterlimit="10" shape-rendering="auto" stroke-opacity="1" fill="black" stroke-dasharray="none" font-weight="normal" stroke-width="1" height="217" font-family="'Dialog'" font-style="normal" stroke-linejoin="miter" font-size="12px" stroke-dashoffset="0" image-rendering="auto">
  <!--Generated by ySVG 2.5-->
  <defs id="genericDefs"/>
  <g>
    <defs id="defs1">
      <linearGradient x1="331.06" gradientUnits="userSpaceOnUse" x2="351.06" y1="2.08" y2="2.08" id="linearGradient1" spreadMethod="reflect">
        <stop stop-opacity="1" stop-color="rgb(232,238,247)" offset="0%"/>
        <stop stop-opacity="1" stop-color="rgb(183,201,227)" offset="100%"/>
      </linearGradient>
      <linearGradient x1="271.06" gradientUnits="userSpaceOnUse" x2="291.06" y1="2.08" y2="2.08" id="linearGradient2" spreadMethod="reflect">
        <stop stop-opacity="1" stop-color="rgb(232,238,247)" offset="0%"/>
        <stop stop-opacity="1" stop-color="rgb(183,201,227)" offset="100%"/>
      </linearGradient>
      <linearGradient x1="211.06" gradientUnits="userSpaceOnUse" x2="231.06" y1="2.08" y2="2.08" id="linearGradient3" spreadMethod="reflect">
        <stop stop-opacity="1" stop-color="rgb(232,238,247)" offset="0%"/>
        <stop stop-opacity="1" stop-color="rgb(183,201,227)" offset="100%"/>
      </linearGradient>
      <linearGradient x1="391.06" gradientUnits="userSpaceOnUse" x2="411.06" y1="46.88" y2="46.88" id="linearGradient4" spreadMethod="reflect">
        <stop stop-opacity="1" stop-color="rgb(232,238,247)" offset="0%"/>
        <stop stop-opacity="1" stop-color="rgb(183,201,227)" offset="100%"/>
      </linearGradient>
      <linearGradient x1="391.06" gradientUnits="userSpaceOnUse" x2="411.06" y1="2.08" y2="2.08" id="linearGradient5" spreadMethod="reflect">
        <stop stop-opacity="1" stop-color="rgb(232,238,247)" offset="0%"/>
        <stop stop-opacity="1" stop-color="rgb(183,201,227)" offset="100%"/>
      </linearGradient>
      <clipPath clipPathUnits="userSpaceOnUse" id="clipPath1">
        <path d="M0 0 L248 0 L248 217 L0 217 L0 0 Z"/>
      </clipPath>
      <clipPath clipPathUnits="userSpaceOnUse" id="clipPath2">
        <path d="M186 -65 L434 -65 L434 152 L186 152 L186 -65 Z"/>
      </clipPath>
    </defs>
    <g fill="white" text-rendering="geometricPrecision" shape-rendering="geometricPrecision" transform="translate(-186,65)" stroke="white">
      <rect x="186" width="248" height="217" y="-65" clip-path="url(#clipPath2)" stroke="none"/>
    </g>
    <g fill="url(#linearGradient1)" text-rendering="geometricPrecision" shape-rendering="geometricPrecision" transform="matrix(1,0,0,1,-186,65)" stroke="url(#linearGradient1)">
      <circle r="15" clip-path="url(#clipPath2)" cx="336.06" cy="17.08" stroke="none"/>
    </g>
    <g text-rendering="geometricPrecision" stroke-miterlimit="1.45" shape-rendering="geometricPrecision" font-family="sans-serif" transform="matrix(1,0,0,1,-186,65)" stroke-linecap="butt">
      <text x="328.1147" xml:space="preserve" y="21.6152" clip-path="url(#clipPath2)" stroke="none">C3</text>
      <circle fill="none" r="15" clip-path="url(#clipPath2)" cx="336.06" cy="17.08"/>
    </g>
    <g text-rendering="geometricPrecision" stroke-miterlimit="1.45" shape-rendering="geometricPrecision" font-family="'Comic Sans MS'" transform="matrix(1,0,0,1,-186,65)" stroke-linecap="butt">
      <text x="316.4106" xml:space="preserve" y="-30.0567" clip-path="url(#clipPath2)" stroke="none">master</text>
    </g>
    <g fill="url(#linearGradient2)" text-rendering="geometricPrecision" shape-rendering="geometricPrecision" transform="matrix(1,0,0,1,-186,65)" stroke="url(#linearGradient2)">
      <circle r="15" clip-path="url(#clipPath2)" cx="276.06" cy="17.08" stroke="none"/>
    </g>
    <g text-rendering="geometricPrecision" stroke-miterlimit="1.45" shape-rendering="geometricPrecision" font-family="sans-serif" transform="matrix(1,0,0,1,-186,65)" stroke-linecap="butt">
      <text x="268.1147" xml:space="preserve" y="21.6152" clip-path="url(#clipPath2)" stroke="none">C2</text>
      <circle fill="none" r="15" clip-path="url(#clipPath2)" cx="276.06" cy="17.08"/>
    </g>
    <g fill="url(#linearGradient3)" text-rendering="geometricPrecision" shape-rendering="geometricPrecision" transform="matrix(1,0,0,1,-186,65)" stroke="url(#linearGradient3)">
      <circle r="15" clip-path="url(#clipPath2)" cx="216.06" cy="17.08" stroke="none"/>
    </g>
    <g text-rendering="geometricPrecision" stroke-miterlimit="1.45" shape-rendering="geometricPrecision" font-family="sans-serif" transform="matrix(1,0,0,1,-186,65)" stroke-linecap="butt">
      <text x="208.1147" xml:space="preserve" y="21.6152" clip-path="url(#clipPath2)" stroke="none">C1</text>
      <circle fill="none" r="15" clip-path="url(#clipPath2)" cx="216.06" cy="17.08"/>
    </g>
    <g text-rendering="geometricPrecision" stroke-miterlimit="1.45" shape-rendering="geometricPrecision" font-family="'Comic Sans MS'" transform="matrix(1,0,0,1,-186,65)" stroke-linecap="butt">
      <text x="381.2123" xml:space="preserve" y="126.7433" clip-path="url(#clipPath2)" stroke="none">iss53</text>
    </g>
    <g fill="url(#linearGradient4)" text-rendering="geometricPrecision" shape-rendering="geometricPrecision" transform="matrix(1,0,0,1,-186,65)" stroke="url(#linearGradient4)">
      <circle r="15" clip-path="url(#clipPath2)" cx="396.06" cy="61.88" stroke="none"/>
    </g>
    <g text-rendering="geometricPrecision" stroke-miterlimit="1.45" shape-rendering="geometricPrecision" font-family="sans-serif" transform="matrix(1,0,0,1,-186,65)" stroke-linecap="butt">
      <text x="388.1147" xml:space="preserve" y="66.4152" clip-path="url(#clipPath2)" stroke="none">C4</text>
      <circle fill="none" r="15" clip-path="url(#clipPath2)" cx="396.06" cy="61.88"/>
    </g>
    <g fill="url(#linearGradient5)" text-rendering="geometricPrecision" shape-rendering="geometricPrecision" transform="matrix(1,0,0,1,-186,65)" stroke="url(#linearGradient5)">
      <circle r="15" clip-path="url(#clipPath2)" cx="396.06" cy="17.08" stroke="none"/>
    </g>
    <g text-rendering="geometricPrecision" stroke-miterlimit="1.45" shape-rendering="geometricPrecision" font-family="sans-serif" transform="matrix(1,0,0,1,-186,65)" stroke-linecap="butt">
      <text x="388.1147" xml:space="preserve" y="21.6152" clip-path="url(#clipPath2)" stroke="none">C5</text>
      <circle fill="none" r="15" clip-path="url(#clipPath2)" cx="396.06" cy="17.08"/>
    </g>
    <g text-rendering="geometricPrecision" stroke-miterlimit="1.45" shape-rendering="geometricPrecision" font-family="'Comic Sans MS'" transform="matrix(1,0,0,1,-186,65)" stroke-linecap="butt">
      <text x="378.3383" xml:space="preserve" y="-30.0567" clip-path="url(#clipPath2)" stroke="none">hotfix</text>
    </g>
    <g text-rendering="geometricPrecision" stroke-miterlimit="1.45" shape-rendering="geometricPrecision" transform="matrix(1,0,0,1,-186,65)" stroke-linecap="butt">
      <path fill="none" d="M336.06 -21.2852 L336.06 -5.92" clip-path="url(#clipPath2)"/>
      <path d="M336.06 2.08 L341.06 -9.92 L336.06 -6.92 L331.06 -9.92 Z" clip-path="url(#clipPath2)" stroke="none"/>
      <path fill="none" stroke-dasharray="6,2" d="M321.06 17.08 L299.06 17.08" clip-path="url(#clipPath2)"/>
      <path stroke-dasharray="6,2" d="M291.06 17.08 L303.06 22.08 L300.06 17.08 L303.06 12.08 Z" clip-path="url(#clipPath2)" stroke="none"/>
      <path fill="none" stroke-dasharray="6,2" d="M261.06 17.08 L239.06 17.08" clip-path="url(#clipPath2)"/>
      <path stroke-dasharray="6,2" d="M231.06 17.08 L243.06 22.08 L240.06 17.08 L243.06 12.08 Z" clip-path="url(#clipPath2)" stroke="none"/>
      <path fill="none" d="M396.06 108.257 L396.06 84.88" clip-path="url(#clipPath2)"/>
      <path d="M396.06 76.88 L391.06 88.88 L396.06 85.88 L401.06 88.88 Z" clip-path="url(#clipPath2)" stroke="none"/>
      <path fill="none" stroke-dasharray="6,2" d="M384.0408 52.9057 L354.4894 30.8407" clip-path="url(#clipPath2)"/>
      <path stroke-dasharray="6,2" d="M348.0792 26.0543 L354.7031 37.2402 L355.2907 31.4389 L360.686 29.2274 Z" clip-path="url(#clipPath2)" stroke="none"/>
      <path fill="none" stroke-dasharray="6,2" d="M381.06 17.08 L359.06 17.08" clip-path="url(#clipPath2)"/>
      <path stroke-dasharray="6,2" d="M351.06 17.08 L363.06 22.08 L360.06 17.08 L363.06 12.08 Z" clip-path="url(#clipPath2)" stroke="none"/>
      <path fill="none" d="M396.06 -21.2852 L396.06 -5.92" clip-path="url(#clipPath2)"/>
      <path d="M396.06 2.08 L401.06 -9.92 L396.06 -6.92 L391.06 -9.92 Z" clip-path="url(#clipPath2)" stroke="none"/>
    </g>
  </g>
</svg>
