<?xml version="1.0" encoding="UTF-8"?><svg xmlns="http://www.w3.org/2000/svg" xmlns:xlink="http://www.w3.org/1999/xlink" fill-opacity="1" color-rendering="auto" color-interpolation="auto" text-rendering="auto" stroke="black" stroke-linecap="square" width="249" stroke-miterlimit="10" shape-rendering="auto" stroke-opacity="1" fill="black" stroke-dasharray="none" font-weight="normal" stroke-width="1" height="270" font-family="'Dialog'" font-style="normal" stroke-linejoin="miter" font-size="12px" stroke-dashoffset="0" image-rendering="auto">
  <!--Generated by ySVG 2.5-->
  <defs id="genericDefs"/>
  <g>
    <defs id="defs1">
      <linearGradient x1="357.94" gradientUnits="userSpaceOnUse" x2="377.94" y1="62.88" y2="62.88" id="linearGradient1" spreadMethod="reflect">
        <stop stop-opacity="1" stop-color="rgb(232,238,247)" offset="0%"/>
        <stop stop-opacity="1" stop-color="rgb(183,201,227)" offset="100%"/>
      </linearGradient>
      <linearGradient x1="297.94" gradientUnits="userSpaceOnUse" x2="317.94" y1="62.88" y2="62.88" id="linearGradient2" spreadMethod="reflect">
        <stop stop-opacity="1" stop-color="rgb(232,238,247)" offset="0%"/>
        <stop stop-opacity="1" stop-color="rgb(183,201,227)" offset="100%"/>
      </linearGradient>
      <linearGradient x1="237.94" gradientUnits="userSpaceOnUse" x2="257.94" y1="62.88" y2="62.88" id="linearGradient3" spreadMethod="reflect">
        <stop stop-opacity="1" stop-color="rgb(232,238,247)" offset="0%"/>
        <stop stop-opacity="1" stop-color="rgb(183,201,227)" offset="100%"/>
      </linearGradient>
      <linearGradient x1="417.94" gradientUnits="userSpaceOnUse" x2="437.94" y1="107.68" y2="107.68" id="linearGradient4" spreadMethod="reflect">
        <stop stop-opacity="1" stop-color="rgb(232,238,247)" offset="0%"/>
        <stop stop-opacity="1" stop-color="rgb(183,201,227)" offset="100%"/>
      </linearGradient>
      <linearGradient x1="417.94" gradientUnits="userSpaceOnUse" x2="437.94" y1="62.88" y2="62.88" id="linearGradient5" spreadMethod="reflect">
        <stop stop-opacity="1" stop-color="rgb(232,238,247)" offset="0%"/>
        <stop stop-opacity="1" stop-color="rgb(183,201,227)" offset="100%"/>
      </linearGradient>
      <clipPath clipPathUnits="userSpaceOnUse" id="clipPath1">
        <path d="M0 0 L249 0 L249 270 L0 270 L0 0 Z"/>
      </clipPath>
      <clipPath clipPathUnits="userSpaceOnUse" id="clipPath2">
        <path d="M212 -57 L461 -57 L461 213 L212 213 L212 -57 Z"/>
      </clipPath>
    </defs>
    <g fill="white" text-rendering="geometricPrecision" shape-rendering="geometricPrecision" transform="translate(-212,57)" stroke="white">
      <rect x="212" width="249" height="270" y="-57" clip-path="url(#clipPath2)" stroke="none"/>
    </g>
    <g fill="url(#linearGradient1)" text-rendering="geometricPrecision" shape-rendering="geometricPrecision" transform="matrix(1,0,0,1,-212,57)" stroke="url(#linearGradient1)">
      <circle r="15" clip-path="url(#clipPath2)" cx="362.94" cy="77.88" stroke="none"/>
    </g>
    <g text-rendering="geometricPrecision" stroke-miterlimit="1.45" shape-rendering="geometricPrecision" font-family="sans-serif" transform="matrix(1,0,0,1,-212,57)" stroke-linecap="butt">
      <text x="354.9947" xml:space="preserve" y="82.4152" clip-path="url(#clipPath2)" stroke="none">C3</text>
      <circle fill="none" r="15" clip-path="url(#clipPath2)" cx="362.94" cy="77.88"/>
    </g>
    <g text-rendering="geometricPrecision" stroke-miterlimit="1.45" shape-rendering="geometricPrecision" font-family="'Comic Sans MS'" transform="matrix(1,0,0,1,-212,57)" stroke-linecap="butt">
      <text x="403.2906" xml:space="preserve" y="-21.2567" clip-path="url(#clipPath2)" stroke="none">master</text>
    </g>
    <g fill="url(#linearGradient2)" text-rendering="geometricPrecision" shape-rendering="geometricPrecision" transform="matrix(1,0,0,1,-212,57)" stroke="url(#linearGradient2)">
      <circle r="15" clip-path="url(#clipPath2)" cx="302.94" cy="77.88" stroke="none"/>
    </g>
    <g text-rendering="geometricPrecision" stroke-miterlimit="1.45" shape-rendering="geometricPrecision" font-family="sans-serif" transform="matrix(1,0,0,1,-212,57)" stroke-linecap="butt">
      <text x="294.9947" xml:space="preserve" y="82.4152" clip-path="url(#clipPath2)" stroke="none">C2</text>
      <circle fill="none" r="15" clip-path="url(#clipPath2)" cx="302.94" cy="77.88"/>
    </g>
    <g fill="url(#linearGradient3)" text-rendering="geometricPrecision" shape-rendering="geometricPrecision" transform="matrix(1,0,0,1,-212,57)" stroke="url(#linearGradient3)">
      <circle r="15" clip-path="url(#clipPath2)" cx="242.94" cy="77.88" stroke="none"/>
    </g>
    <g text-rendering="geometricPrecision" stroke-miterlimit="1.45" shape-rendering="geometricPrecision" font-family="sans-serif" transform="matrix(1,0,0,1,-212,57)" stroke-linecap="butt">
      <text x="234.9947" xml:space="preserve" y="82.4152" clip-path="url(#clipPath2)" stroke="none">C1</text>
      <circle fill="none" r="15" clip-path="url(#clipPath2)" cx="242.94" cy="77.88"/>
    </g>
    <g text-rendering="geometricPrecision" stroke-miterlimit="1.45" shape-rendering="geometricPrecision" font-family="'Comic Sans MS'" transform="matrix(1,0,0,1,-212,57)" stroke-linecap="butt">
      <text x="408.0923" xml:space="preserve" y="187.5433" clip-path="url(#clipPath2)" stroke="none">iss53</text>
    </g>
    <g fill="url(#linearGradient4)" text-rendering="geometricPrecision" shape-rendering="geometricPrecision" transform="matrix(1,0,0,1,-212,57)" stroke="url(#linearGradient4)">
      <circle r="15" clip-path="url(#clipPath2)" cx="422.94" cy="122.68" stroke="none"/>
    </g>
    <g text-rendering="geometricPrecision" stroke-miterlimit="1.45" shape-rendering="geometricPrecision" font-family="sans-serif" transform="matrix(1,0,0,1,-212,57)" stroke-linecap="butt">
      <text x="414.9947" xml:space="preserve" y="127.2152" clip-path="url(#clipPath2)" stroke="none">C4</text>
      <circle fill="none" r="15" clip-path="url(#clipPath2)" cx="422.94" cy="122.68"/>
    </g>
    <g fill="url(#linearGradient5)" text-rendering="geometricPrecision" shape-rendering="geometricPrecision" transform="matrix(1,0,0,1,-212,57)" stroke="url(#linearGradient5)">
      <circle r="15" clip-path="url(#clipPath2)" cx="422.94" cy="77.88" stroke="none"/>
    </g>
    <g text-rendering="geometricPrecision" stroke-miterlimit="1.45" shape-rendering="geometricPrecision" font-family="sans-serif" transform="matrix(1,0,0,1,-212,57)" stroke-linecap="butt">
      <text x="414.9947" xml:space="preserve" y="82.4152" clip-path="url(#clipPath2)" stroke="none">C5</text>
      <circle fill="none" r="15" clip-path="url(#clipPath2)" cx="422.94" cy="77.88"/>
    </g>
    <g text-rendering="geometricPrecision" stroke-miterlimit="1.45" shape-rendering="geometricPrecision" font-family="'Comic Sans MS'" transform="matrix(1,0,0,1,-212,57)" stroke-linecap="butt">
      <text x="405.2183" xml:space="preserve" y="30.7433" clip-path="url(#clipPath2)" stroke="none">hotfix</text>
    </g>
    <g text-rendering="geometricPrecision" stroke-miterlimit="1.45" stroke-dasharray="6,2" shape-rendering="geometricPrecision" transform="matrix(1,0,0,1,-212,57)" stroke-linecap="butt">
      <path fill="none" d="M347.94 77.88 L325.94 77.88" clip-path="url(#clipPath2)"/>
      <path d="M317.94 77.88 L329.94 82.88 L326.94 77.88 L329.94 72.88 Z" clip-path="url(#clipPath2)" stroke="none"/>
      <path fill="none" d="M287.94 77.88 L265.94 77.88" clip-path="url(#clipPath2)"/>
      <path d="M257.94 77.88 L269.94 82.88 L266.94 77.88 L269.94 72.88 Z" clip-path="url(#clipPath2)" stroke="none"/>
      <path fill="none" stroke-dasharray="none" d="M422.94 169.0569 L422.94 145.68" clip-path="url(#clipPath2)"/>
      <path stroke-dasharray="none" d="M422.94 137.68 L417.94 149.68 L422.94 146.68 L427.94 149.68 Z" clip-path="url(#clipPath2)" stroke="none"/>
      <path fill="none" d="M410.9208 113.7057 L381.3694 91.6407" clip-path="url(#clipPath2)"/>
      <path d="M374.9592 86.8543 L381.5831 98.0402 L382.1707 92.2389 L387.566 90.0274 Z" clip-path="url(#clipPath2)" stroke="none"/>
      <path fill="none" d="M407.94 77.88 L385.94 77.88" clip-path="url(#clipPath2)"/>
      <path d="M377.94 77.88 L389.94 82.88 L386.94 77.88 L389.94 72.88 Z" clip-path="url(#clipPath2)" stroke="none"/>
      <path fill="none" stroke-dasharray="none" d="M422.94 -12.4852 L422.94 12.2049" clip-path="url(#clipPath2)"/>
      <path fill="none" stroke-dasharray="none" d="M422.94 -12.4852 L422.94 12.2049" clip-path="url(#clipPath2)"/>
      <path fill="none" stroke-dasharray="none" d="M422.94 39.5148 L422.94 54.88" clip-path="url(#clipPath2)"/>
      <path stroke-dasharray="none" d="M422.94 62.88 L427.94 50.88 L422.94 53.88 L417.94 50.88 Z" clip-path="url(#clipPath2)" stroke="none"/>
    </g>
  </g>
</svg>
